# xmcd
# Track frame offsets:
# 150
# 13011
# 23347
# 38122
# 51249
# 63101
# 76008
# 91166
# 102515
# 114370
#
# Disc length: 1670 seconds
# Revision: 0
# Processed by: cddbd v1.5.1PL0 Copyright (c) Steve Scherf et al.
# Submitted via: VisiTrax 2.9.10.228 - For more info visit www.synapsa.com
#
DISCID=6706840a
DTITLE="Various Artists" - Country Favorites
DYEAR=1900
DGENRE=
TTITLE0=Freddy Fender - Wasted Days And Wasted Nights
TTITLE1=Faron Young - Hello Walls
TTITLE2=Jeanne Pruett - Satin Sheets
TTITLE3=Kenny Rogers - Ruby Don't Take Your Love To Town
TTITLE4=Willie Nelson - Night Life
TTITLE5=TG Sheppard - Devil In The Bottle
TTITLE6=Moe Bandy - Hank Williams You Wrote My Life
TTITLE7=Kitty Wells - It Wasn't God Who Made Honkey Tonk Angels
TTITLE8=Patsy Cline - Walkin After Midnight
TTITLE9=Jack Greene - There Goes My Everything
EXTD=
EXTT0=
EXTT1=
EXTT2=
EXTT3=
EXTT4=
EXTT5=
EXTT6=
EXTT7=
EXTT8=
EXTT9=
PLAYORDER=
